<?xml version="1.0" encoding="UTF-8" standalone="no"?>
<!-- Uploaded to: SVG Repo, www.svgrepo.com, Generator: SVG Repo Mixer Tools -->

<svg
   fill="#000000"
   width="800px"
   height="800px"
   viewBox="0 0 52 52"
   data-name="Layer 1"
   id="Layer_1"
   version="1.1"
   sodipodi:docname="forward.svg"
   inkscape:version="1.4.1 (93de688d07, 2025-03-30)"
   xmlns:inkscape="http://www.inkscape.org/namespaces/inkscape"
   xmlns:sodipodi="http://sodipodi.sourceforge.net/DTD/sodipodi-0.dtd"
   xmlns="http://www.w3.org/2000/svg"
   xmlns:svg="http://www.w3.org/2000/svg">
  <defs
     id="defs1" />
  <sodipodi:namedview
     id="namedview1"
     pagecolor="#505050"
     bordercolor="#ffffff"
     borderopacity="1"
     inkscape:showpageshadow="0"
     inkscape:pageopacity="0"
     inkscape:pagecheckerboard="1"
     inkscape:deskcolor="#505050"
     inkscape:zoom="0.65053824"
     inkscape:cx="428.87563"
     inkscape:cy="400.43764"
     inkscape:window-width="1536"
     inkscape:window-height="834"
     inkscape:window-x="0"
     inkscape:window-y="0"
     inkscape:window-maximized="1"
     inkscape:current-layer="Layer_1" />
  <g
     data-name="Group 132"
     id="Group_132"
     style="fill:#ffffff;stroke:#ffffff;stroke-width:3.3994;stroke-dasharray:none;stroke-opacity:1"
     transform="matrix(0.97092346,0,0,-0.93896068,-10.016879,50.421841)">
    <path
       d="M 14,52 A 2,2 0 0 1 12.59,48.59 L 35.17,26 12.59,3.41 a 2,2 0 0 1 0,-2.82 2,2 0 0 1 2.82,0 l 24,24 a 2,2 0 0 1 0,2.82 l -24,24 A 2,2 0 0 1 14,52 Z"
       id="path1"
       style="fill:#ffffff;stroke:#ffffff;stroke-width:3.3994;stroke-dasharray:none;stroke-opacity:1" />
  </g>
  <g
     data-name="Group 132"
     id="Group_132-5"
     style="fill:#ffffff;fill-opacity:1;stroke:#ffffff;stroke-width:3.25;stroke-dasharray:none;stroke-opacity:1"
     transform="matrix(1.0033522,0,0,-0.93965207,10.251062,50.439764)">
    <path
       d="M 14,52 A 2,2 0 0 1 12.59,48.59 L 35.17,26 12.59,3.41 a 2,2 0 0 1 0,-2.82 2,2 0 0 1 2.82,0 l 24,24 a 2,2 0 0 1 0,2.82 l -24,24 A 2,2 0 0 1 14,52 Z"
       id="path1-3"
       style="fill:#ffffff;fill-opacity:1;stroke:#ffffff;stroke-width:3.25;stroke-dasharray:none;stroke-opacity:1" />
  </g>
</svg>
