<?xml version="1.0" encoding="UTF-8"?>
<!DOCTYPE svg PUBLIC "-//W3C//DTD SVG 1.1//EN" "http://www.w3.org/Graphics/SVG/1.1/DTD/svg11.dtd">
<svg xmlns="http://www.w3.org/2000/svg" version="1.1" width="512px" height="512px" style="shape-rendering:geometricPrecision; text-rendering:geometricPrecision; image-rendering:optimizeQuality; fill-rule:evenodd; clip-rule:evenodd" xmlns:xlink="http://www.w3.org/1999/xlink">
<g><path style="opacity:0.989" fill="#ffffff" d="M 109.5,-0.5 C 117.5,-0.5 125.5,-0.5 133.5,-0.5C 164.186,6.35023 183.686,25.0169 192,55.5C 193.155,122.141 193.655,188.807 193.5,255.5C 193.655,322.193 193.155,388.859 192,455.5C 183.686,485.983 164.186,504.65 133.5,511.5C 125.5,511.5 117.5,511.5 109.5,511.5C 73.7039,502.963 53.8706,480.296 50,443.5C 49.3333,318.167 49.3333,192.833 50,67.5C 53.8706,30.7036 73.7039,8.03692 109.5,-0.5 Z"/></g>
<g><path style="opacity:0.989" fill="#ffffff" d="M 377.5,-0.5 C 385.5,-0.5 393.5,-0.5 401.5,-0.5C 437.597,8.30243 457.43,31.3024 461,68.5C 461.667,193.167 461.667,317.833 461,442.5C 457.43,479.698 437.597,502.698 401.5,511.5C 393.5,511.5 385.5,511.5 377.5,511.5C 346.814,504.65 327.314,485.983 319,455.5C 317.845,388.859 317.345,322.193 317.5,255.5C 317.345,188.807 317.845,122.141 319,55.5C 327.314,25.0169 346.814,6.35023 377.5,-0.5 Z"/></g>
</svg>
